<svg width="20" height="20" viewBox="0 0 20 20" fill="none" xmlns="http://www.w3.org/2000/svg">
<path fill-rule="evenodd" clip-rule="evenodd" d="M18.0993 16.9258L15.0095 13.8591C17.4998 10.7522 17.1289 6.23934 14.1646 3.58132C11.2003 0.923296 6.67664 1.04715 3.86206 3.8634C1.04749 6.67965 0.923708 11.206 3.58015 14.1721C6.23659 17.1381 10.7467 17.5093 13.8518 15.0175L16.9167 18.0841C17.0731 18.2419 17.2859 18.3306 17.508 18.3306C17.7301 18.3306 17.9429 18.2419 18.0993 18.0841C18.4113 17.7611 18.4113 17.2488 18.0993 16.9258ZM9.17961 15.0175C5.95987 15.0175 3.34975 12.4058 3.34975 9.18412C3.34975 5.96246 5.95987 3.35078 9.17961 3.35078C12.3994 3.35078 15.0095 5.96246 15.0095 9.18412C15.0095 10.7312 14.3953 12.2149 13.3019 13.3089C12.2086 14.4029 10.7258 15.0175 9.17961 15.0175Z" fill="#8993A4"/>
</svg>
