<svg width="48" height="48" viewBox="0 0 40 40" fill="none" xmlns="http://www.w3.org/2000/svg">
<path d="M28.3335 13.334H11.6668C9.8335 13.334 8.3335 14.834 8.3335 16.6673V33.334C8.3335 35.1673 9.8335 36.6673 11.6668 36.6673H28.3335C30.1668 36.6673 31.6668 35.1673 31.6668 33.334V16.6673C31.6668 14.834 30.1668 13.334 28.3335 13.334ZM21.6668 34.1673H18.3335V31.6673H21.6668V34.1673ZM21.6668 30.0007H18.3335C18.3335 27.5007 14.1668 25.0007 14.1668 21.6673C14.1668 18.4507 16.7835 15.834 20.0002 15.834C23.2168 15.834 25.8335 18.4507 25.8335 21.6673C25.8335 25.0007 21.6668 27.5007 21.6668 30.0007Z" fill="#0078DB"/>
<path d="M11.6665 5.83398H28.3332C28.3332 4.45065 27.2165 3.33398 25.8332 3.33398H14.1665C12.7832 3.33398 11.6665 4.45065 11.6665 5.83398Z" fill="#FFD795"/>
<path d="M10 10.834H30C30 9.45065 28.8833 8.33398 27.5 8.33398H12.5C11.1167 8.33398 10 9.45065 10 10.834Z" fill="#FFAA3E"/>
<path d="M18.3335 34.1673H21.6668V31.6673H18.3335V34.1673Z" fill="white"/>
<path d="M18.3335 30.0007H21.6668C21.6668 27.5007 25.8335 25.0007 25.8335 21.6673C25.8335 18.4507 23.2168 15.834 20.0002 15.834C16.7835 15.834 14.1668 18.4507 14.1668 21.6673C14.1668 25.0007 18.3335 27.5007 18.3335 30.0007Z" fill="white"/>
</svg>
